<svg width="164" height="164" viewBox="0 0 164 164" fill="none" xmlns="http://www.w3.org/2000/svg">
<circle cx="82" cy="82" r="82" fill="#D2F1FF"/>
<circle cx="81.1959" cy="81.1959" r="61.902" fill="white"/>
<path fill-rule="evenodd" clip-rule="evenodd" d="M48.2352 48.1963C48.2352 43.778 51.8169 40.1963 56.2352 40.1963H62.745C67.1633 40.1963 70.745 43.778 70.745 48.1963V61.7061C70.745 62.2584 70.2973 62.7061 69.745 62.7061H49.2352C48.6829 62.7061 48.2352 62.2584 48.2352 61.7061V48.1963ZM45.0195 73.9218C45.0195 69.5035 48.6013 65.9218 53.0195 65.9218H65.9607C70.379 65.9218 73.9607 69.5035 73.9607 73.9218V80.3924H90.0391V73.9218C90.0391 69.5035 93.6209 65.9218 98.0391 65.9218H110.98C115.399 65.9218 118.98 69.5035 118.98 73.9218V121.196C118.98 121.749 118.533 122.196 117.98 122.196H91.0391C90.4869 122.196 90.0391 121.749 90.0391 121.196V94.863H73.9607V121.196C73.9607 121.749 73.513 122.196 72.9607 122.196H46.0195C45.4672 122.196 45.0195 121.749 45.0195 121.196V73.9218ZM115.765 51.4512C115.765 57.6671 110.726 62.7061 104.51 62.7061C98.2938 62.7061 93.2548 57.6671 93.2548 51.4512C93.2548 45.2353 98.2938 40.1963 104.51 40.1963C110.726 40.1963 115.765 45.2353 115.765 51.4512Z" fill="#D2F1FF"/>
</svg>
