<svg width="23" height="23" viewBox="0 0 23 23" fill="none" xmlns="http://www.w3.org/2000/svg">
<path fill-rule="evenodd" clip-rule="evenodd" d="M11.5 0C5.14886 0 0 5.14886 0 11.5C0 17.8511 5.14886 23 11.5 23C17.8511 23 23 17.8511 23 11.5C23 5.14886 17.8511 0 11.5 0ZM12.5455 6.27273C12.5455 5.99546 12.4353 5.72954 12.2392 5.53348C12.0432 5.33742 11.7773 5.22727 11.5 5.22727C11.2227 5.22727 10.9568 5.33742 10.7608 5.53348C10.5647 5.72954 10.4545 5.99546 10.4545 6.27273V12.5455C10.4545 12.8227 10.5647 13.0886 10.7608 13.2847C10.9568 13.4808 11.2227 13.5909 11.5 13.5909C11.7773 13.5909 12.0432 13.4808 12.2392 13.2847C12.4353 13.0886 12.5455 12.8227 12.5455 12.5455V6.27273ZM12.5455 16.2045C12.5455 15.9273 12.4353 15.6614 12.2392 15.4653C12.0432 15.2692 11.7773 15.1591 11.5 15.1591C11.2227 15.1591 10.9568 15.2692 10.7608 15.4653C10.5647 15.6614 10.4545 15.9273 10.4545 16.2045V16.7273C10.4545 17.0045 10.5647 17.2705 10.7608 17.4665C10.9568 17.6626 11.2227 17.7727 11.5 17.7727C11.7773 17.7727 12.0432 17.6626 12.2392 17.4665C12.4353 17.2705 12.5455 17.0045 12.5455 16.7273V16.2045Z" fill="#1E88E5"/>
</svg>
