<svg width="40" height="40" viewBox="0 0 40 40" fill="none" xmlns="http://www.w3.org/2000/svg">
<path d="M28.9013 21.3255C28.887 18.9484 29.9921 17.1569 32.2239 15.8359C30.9757 14.0932 29.0873 13.1347 26.598 12.95C24.2411 12.7687 21.6624 14.2884 20.7182 14.2884C19.7203 14.2884 17.4385 13.0127 15.6431 13.0127C11.9378 13.0685 8 15.8917 8 21.6357C8 23.3331 8.31831 25.0863 8.95494 26.8917C9.80615 29.2688 12.8748 35.093 16.0758 34.9989C17.7496 34.9605 18.9335 33.8417 21.1116 33.8417C23.2253 33.8417 24.3197 34.9989 26.1867 34.9989C29.4163 34.9536 32.1917 29.6592 33 27.2751C28.6688 25.2849 28.9013 21.4475 28.9013 21.3255ZM25.1423 10.6949C26.9557 8.59665 26.7911 6.68663 26.7375 6C25.1352 6.09062 23.2825 7.06306 22.2275 8.25857C21.0651 9.54121 20.382 11.1271 20.5286 12.9151C22.2597 13.0441 23.8405 12.1762 25.1423 10.6949Z" fill="#363636"/>
</svg>
