<svg width="89" height="108" viewBox="0 0 89 108" fill="none" xmlns="http://www.w3.org/2000/svg">
<g clip-path="url(#clip0_264_4437)">
<rect width="89" height="108" rx="6" fill="white"/>
<g clip-path="url(#clip1_264_4437)">
<path d="M-3.17871 138.692C-3.17871 138.692 6.19441 92.7173 46.5562 92.7173C86.918 92.7173 92.1784 138.692 92.1784 138.692H-3.17871Z" fill="#FF6A60"/>
<path d="M16.4282 91.3787C16.4282 91.3787 52.486 84.7836 71.4235 90.9964C76.4927 77.9018 87.0135 14.5317 47.7994 13.6715C5.62041 12.7157 12.6024 81.6295 16.4282 91.3787Z" fill="#774C40"/>
<path d="M24.6157 53.3989C25.2968 49.3383 22.5549 45.4947 18.4916 44.8141C14.4283 44.1335 10.5822 46.8736 9.90115 50.9342C9.22008 54.9948 11.9619 58.8384 16.0253 59.519C20.0886 60.1996 23.9347 57.4596 24.6157 53.3989Z" fill="#F09393"/>
<path d="M80.1644 53.4348C80.8244 49.3705 78.0625 45.541 73.9955 44.8813C69.9284 44.2217 66.0964 46.9818 65.4363 51.0461C64.7763 55.1105 67.5382 58.94 71.6052 59.5996C75.6722 60.2592 79.5043 57.4992 80.1644 53.4348Z" fill="#F09393"/>
<path d="M54.6862 76.946L53.4428 60.3149L40.4352 62.131L38.3311 86.4085C42.635 85.9306 49.6171 83.9234 54.6862 76.946Z" fill="#D19582"/>
<path d="M20.2543 36.2288C19.5848 37.9492 19.6804 40.3388 19.5848 42.2504C19.2979 46.2648 19.3935 50.2792 19.7761 54.198C20.6369 62.0356 24.367 68.9174 31.5403 72.6451C38.7136 76.4683 48.3737 77.8065 56.0252 74.6523C61.9551 72.2628 66.4504 67.8661 68.8415 62.1312C71.5195 55.5361 71.5195 47.0294 71.137 39.8608C69.7023 13.2894 48.0867 13.6717 48.0867 13.6717C48.0867 13.6717 28.1928 16.348 20.2543 36.2288Z" fill="#FFD0BF"/>
<path d="M38.331 86.4089L37.3745 97.114C37.3745 97.114 37.7571 102.467 46.3651 103.518C55.0687 104.474 56.1208 95.4891 56.1208 95.4891L54.6861 77.042C49.617 83.9238 42.6349 85.931 38.331 86.4089Z" fill="#FFD0BF"/>
<path d="M32.2098 50.8525C32.2098 52.2862 31.6359 53.5288 30.8708 53.5288C30.1056 53.5288 29.5317 52.3818 29.5317 50.8525C29.5317 49.4188 30.1056 48.1763 30.8708 48.1763C31.5403 48.1763 32.2098 49.4188 32.2098 50.8525Z" fill="#373C44"/>
<path d="M60.7117 51.9038C60.7117 53.3375 60.1379 54.5801 59.3727 54.5801C58.6076 54.5801 58.0337 53.4331 58.0337 51.9038C58.0337 50.4701 58.6076 49.2275 59.3727 49.2275C60.1379 49.3231 60.7117 50.4701 60.7117 51.9038Z" fill="#373C44"/>
<path d="M45.4086 52.1909C44.8348 52.4777 44.3566 52.86 43.8783 53.1467C43.4001 53.4335 42.9219 53.9114 42.8262 54.1981C42.8262 54.2937 42.9219 54.4849 43.1132 54.676C43.3045 54.8672 43.4958 54.9628 43.7827 55.0583C44.2609 55.2495 44.8348 55.0583 45.4086 54.7716C45.0261 55.2495 44.4522 55.7274 43.687 55.6318C43.3045 55.6318 43.0175 55.4407 42.7306 55.1539C42.4437 54.9628 42.1567 54.5804 42.1567 54.1025C42.2524 53.6246 42.5393 53.3379 42.7306 53.1467C43.0175 52.9556 43.3045 52.7644 43.5914 52.6688C44.1653 52.3821 44.8348 52.2865 45.4086 52.1909Z" fill="#373C44"/>
<path d="M41.7739 58.4033C42.3478 58.7856 43.0173 59.0724 43.5912 59.3591C44.165 59.6459 44.8345 59.837 45.504 59.837C46.1736 59.837 46.7474 59.7415 47.4169 59.4547C47.9908 59.168 48.5647 58.7856 49.1385 58.4033C48.9472 58.6901 48.7559 58.9768 48.469 59.2635C48.1821 59.5503 47.9908 59.7415 47.6082 59.9326C47.0343 60.3149 46.1736 60.5061 45.4084 60.5061C43.8781 60.5061 42.5391 59.5503 41.7739 58.4033Z" fill="#373C44"/>
<path d="M17.2891 40.1477C17.2891 40.1477 46.2692 37.4714 46.7474 21.0315C49.0429 34.8907 61.4766 36.5156 74.2929 39.383C74.2929 39.383 70.2759 11.4734 45.1215 13.7673C39.7654 14.2452 35.1745 17.3038 31.1575 20.458C22.1669 27.531 18.1499 38.0449 17.2891 40.1477Z" fill="#774C40"/>
<path d="M48.5649 14.9142C48.5649 14.9142 50.2864 5.26055 47.8953 4.78265C45.5042 4.30474 46.7476 13.7672 46.7476 13.7672C46.7476 13.7672 45.9825 7.84123 42.5393 8.0324C39.0004 8.12798 45.9825 14.7231 48.5649 14.9142Z" fill="#774C40"/>
<path d="M29.2449 62.9915C30.7767 62.9915 32.0185 61.7505 32.0185 60.2196C32.0185 58.6888 30.7767 57.4478 29.2449 57.4478C27.713 57.4478 26.4712 58.6888 26.4712 60.2196C26.4712 61.7505 27.713 62.9915 29.2449 62.9915Z" fill="#F78787"/>
<path d="M60.7117 62.9915C62.2435 62.9915 63.4853 61.7505 63.4853 60.2196C63.4853 58.6888 62.2435 57.4478 60.7117 57.4478C59.1798 57.4478 57.938 58.6888 57.938 60.2196C57.938 61.7505 59.1798 62.9915 60.7117 62.9915Z" fill="#F78787"/>
<path d="M28.1924 62.2265C33.8972 62.2265 38.5219 57.6049 38.5219 51.9038C38.5219 46.2027 33.8972 41.5811 28.1924 41.5811C22.4875 41.5811 17.8628 46.2027 17.8628 51.9038C17.8628 57.6049 22.4875 62.2265 28.1924 62.2265Z" stroke="white" stroke-miterlimit="10"/>
<path d="M61.3808 62.2265C67.0857 62.2265 71.7104 57.6049 71.7104 51.9038C71.7104 46.2027 67.0857 41.5811 61.3808 41.5811C55.676 41.5811 51.0513 46.2027 51.0513 51.9038C51.0513 57.6049 55.676 62.2265 61.3808 62.2265Z" stroke="white" stroke-miterlimit="10"/>
<path d="M38.3311 51.4263C38.3311 51.4263 45.7913 45.5003 51.0517 51.9998" stroke="white" stroke-miterlimit="10"/>
<path d="M56.0249 45.1179C56.5031 44.3532 57.1726 43.6841 57.9378 43.2062C58.7029 42.7283 59.6594 42.346 60.6158 42.2504C61.5723 42.1549 62.5287 42.346 63.3895 42.7283C64.2503 43.1107 64.9198 43.7797 65.4937 44.4488C65.1111 44.2576 64.7285 44.0665 64.3459 43.8753C63.9634 43.6841 63.5808 43.493 63.1982 43.3974C62.4331 43.1107 61.5723 43.1107 60.8071 43.2062C58.9899 43.3018 57.4596 44.162 56.0249 45.1179Z" fill="#685A56"/>
<path d="M33.7398 45.0222C32.3052 43.7797 30.5836 43.2062 28.862 43.1106C28.0012 43.1106 27.1404 43.2062 26.2796 43.3973C25.8014 43.4929 25.4188 43.6841 24.9406 43.7797C24.4624 43.9708 24.0798 44.0664 23.6016 44.2576C23.9841 43.9708 24.3667 43.6841 24.7493 43.3973C25.1319 43.2062 25.6101 42.9194 25.9927 42.7283C26.8535 42.3459 27.9055 42.1548 28.862 42.1548C29.8184 42.1548 30.8705 42.4415 31.7313 42.9194C32.5921 43.4929 33.3573 44.162 33.7398 45.0222Z" fill="#685A56"/>
</g>
</g>
<defs>
<clipPath id="clip0_264_4437">
<rect width="89" height="108" rx="6" fill="white"/>
</clipPath>
<clipPath id="clip1_264_4437">
<rect width="158.293" height="222.671" fill="white" transform="translate(-4.76807 -84.1763)"/>
</clipPath>
</defs>
</svg>
