<svg width="40" height="64" viewBox="0 0 40 64" fill="none" xmlns="http://www.w3.org/2000/svg">
<path d="M35.1466 4.85337C34.3121 4.01884 33.1802 3.55 32 3.55H8C6.81979 3.55 5.68791 4.01884 4.85338 4.85337C4.01884 5.68791 3.55 6.81979 3.55 8V56C3.55 57.1802 4.01884 58.3121 4.85338 59.1466C5.68791 59.9812 6.81979 60.45 8 60.45H32C33.1802 60.45 34.3121 59.9812 35.1466 59.1466C35.9812 58.3121 36.45 57.1802 36.45 56V8C36.45 6.81979 35.9812 5.68791 35.1466 4.85337ZM2.66134 2.66134C4.07724 1.24544 5.99762 0.45 8 0.45H32C34.0024 0.45 35.9228 1.24544 37.3387 2.66134C38.7546 4.07724 39.55 5.99762 39.55 8V56C39.55 58.0024 38.7546 59.9228 37.3387 61.3387C35.9228 62.7546 34.0024 63.55 32 63.55H8C5.99762 63.55 4.07724 62.7546 2.66134 61.3387C1.24544 59.9228 0.45 58.0024 0.45 56V8C0.45 5.99762 1.24544 4.07724 2.66134 2.66134Z" fill="white" stroke="#1E4E79" stroke-width="0.9"/>
<path d="M22.5102 54.5102C21.8445 55.176 20.9415 55.55 20 55.55C19.0585 55.55 18.1555 55.176 17.4898 54.5102C16.824 53.8445 16.45 52.9415 16.45 52C16.45 51.0585 16.824 50.1555 17.4898 49.4898C18.1555 48.824 19.0585 48.45 20 48.45C20.9415 48.45 21.8445 48.824 22.5102 49.4898C23.176 50.1555 23.55 51.0585 23.55 52C23.55 52.9415 23.176 53.8445 22.5102 54.5102Z" fill="white" stroke="#1E4E79" stroke-width="0.9"/>
</svg>
