<svg width="59" height="59" viewBox="0 0 59 59" fill="none" xmlns="http://www.w3.org/2000/svg">
<path d="M51.625 41.0125H52.075V40.5625V31.7938H54.8625V40.5625C54.8625 41.4211 54.5214 42.2446 53.9143 42.8518C53.3071 43.4589 52.4836 43.8 51.625 43.8H36.875H36.425V44.25V51.625V52.075H36.875H43.8V54.8625H15.2V52.075H22.125H22.575V51.625V44.25V43.8H22.125H7.375C6.51636 43.8 5.69289 43.4589 5.08574 42.8518C4.47859 42.2446 4.1375 41.4211 4.1375 40.5625V11.0625C4.1375 10.2039 4.47859 9.38039 5.08574 8.77324C5.69289 8.16609 6.51636 7.825 7.375 7.825H25.3625V10.6125H7.375H6.925V11.0625V40.5625V41.0125H7.375H51.625ZM33.1875 52.075H33.6375V51.625V44.25V43.8H33.1875H25.8125H25.3625V44.25V51.625V52.075H25.8125H33.1875Z" fill="white" stroke="#1E4E79" stroke-width="0.9"/>
<path d="M50.998 14.8408L51.072 15.2H51.4388H54.8625V17.9875H51.4388H51.072L50.998 18.3467C50.7719 19.4441 50.3362 20.4877 49.7147 21.42L49.5101 21.7269L49.771 21.9878L52.1999 24.4168L50.2293 26.3874L47.8003 23.9585L47.5394 23.6976L47.2325 23.9022C46.3002 24.5237 45.2566 24.9594 44.1592 25.1855L43.8 25.2595V25.6263V29.05H41.0125V25.6263V25.2595L40.6533 25.1855C39.5559 24.9594 38.5123 24.5237 37.58 23.9022L37.2731 23.6976L37.0122 23.9585L34.5832 26.3874L32.6126 24.4168L35.0415 21.9878L35.3024 21.7269L35.0978 21.42C34.4763 20.4877 34.0406 19.4441 33.8145 18.3467L33.7405 17.9875H33.3737H29.95V15.2H33.3737H33.7405L33.8145 14.8408C34.0406 13.7434 34.4763 12.6998 35.0978 11.7675L35.3024 11.4606L35.0415 11.1997L32.6126 8.77072L34.5832 6.80005L37.0122 9.22904L37.2731 9.48988L37.58 9.28528C38.5123 8.6638 39.5559 8.22806 40.6533 8.00196L41.0125 7.92796V7.56122V4.1375H43.8V7.56122V7.92796L44.1592 8.00196C45.2566 8.22806 46.3002 8.6638 47.2325 9.28528L47.5394 9.48988L47.8003 9.22904L50.2293 6.80005L52.1999 8.77072L49.771 11.1997L49.5101 11.4606L49.7147 11.7675C50.3362 12.6998 50.7719 13.7434 50.998 14.8408ZM42.4062 22.575L42.4067 22.575C43.9924 22.5734 45.5127 21.9428 46.634 20.8215C47.7553 19.7002 48.3859 18.1799 48.3875 16.5942V16.5938C48.3875 15.4108 48.0367 14.2544 47.3795 13.2707C46.7222 12.2871 45.7881 11.5205 44.6952 11.0678C43.6022 10.6151 42.3996 10.4966 41.2394 10.7274C40.0791 10.9582 39.0134 11.5279 38.1769 12.3644C37.3404 13.2009 36.7707 14.2666 36.5399 15.4269C36.3091 16.5871 36.4276 17.7897 36.8803 18.8827C37.333 19.9756 38.0996 20.9097 39.0832 21.567C40.0669 22.2242 41.2233 22.575 42.4062 22.575Z" fill="white" stroke="#1E4E79" stroke-width="0.9"/>
</svg>
