<svg width="40" height="40" viewBox="0 0 40 40" fill="none" xmlns="http://www.w3.org/2000/svg">
<path d="M30.5733 14.517C29.3949 14.517 28.4416 15.4703 28.4416 16.647V24.197C28.4416 24.7623 28.6662 25.3045 29.0659 25.7043C29.4657 26.104 30.0079 26.3286 30.5733 26.3286C31.1386 26.3286 31.6808 26.104 32.0806 25.7043C32.4803 25.3045 32.7049 24.7623 32.7049 24.197V16.647C32.7049 15.4703 31.7516 14.517 30.5733 14.517ZM9.42659 14.517C8.24826 14.517 7.29492 15.4703 7.29492 16.647V24.197C7.29492 24.7623 7.51951 25.3045 7.91927 25.7043C8.31904 26.104 8.86124 26.3286 9.42659 26.3286C9.99194 26.3286 10.5341 26.104 10.9339 25.7043C11.3337 25.3045 11.5583 24.7623 11.5583 24.197V16.647C11.5585 16.3671 11.5035 16.0898 11.3964 15.8312C11.2893 15.5726 11.1323 15.3376 10.9343 15.1398C10.7363 14.9419 10.5012 14.785 10.2425 14.6782C9.98376 14.5713 9.70651 14.5165 9.42659 14.517ZM24.2416 8.16864L25.5216 5.8553C25.559 5.78944 25.583 5.7168 25.5921 5.64161C25.6012 5.56641 25.5952 5.49016 25.5746 5.41727C25.554 5.34439 25.5191 5.27633 25.4719 5.21705C25.4248 5.15778 25.3663 5.10846 25.2999 5.07197C25.2337 5.03465 25.1608 5.01086 25.0853 5.00198C25.0099 4.9931 24.9334 4.9993 24.8604 5.02024C24.7873 5.04117 24.7192 5.07642 24.6599 5.12393C24.6006 5.17143 24.5513 5.23025 24.5149 5.29697L23.1999 7.66364C22.2199 7.27197 21.1399 7.0503 19.9999 7.0503C18.8599 7.0503 17.7799 7.2703 16.7999 7.66197L15.4849 5.29864C15.4486 5.23192 15.3993 5.1731 15.34 5.12559C15.2807 5.07809 15.2125 5.04284 15.1395 5.02191C15.0665 5.00097 14.99 4.99476 14.9145 5.00364C14.8391 5.01252 14.7661 5.03632 14.6999 5.07364C14.6339 5.11045 14.5757 5.15994 14.5288 5.21925C14.4819 5.27857 14.4472 5.34656 14.4266 5.41932C14.406 5.49208 14.4 5.56819 14.4088 5.64329C14.4177 5.71839 14.4413 5.791 14.4783 5.85697L15.7583 8.1703C13.4533 9.48364 11.9133 11.832 11.9133 14.517C11.9133 14.5353 11.9133 14.552 11.9166 14.5736C11.9133 14.5836 11.9133 14.5953 11.9133 14.6053V14.607H28.0849V14.517C28.0866 11.832 26.5466 9.4853 24.2416 8.16864ZM16.2666 11.4486C16.1908 11.4481 16.1158 11.4326 16.0459 11.4031C15.9761 11.3736 15.9127 11.3306 15.8595 11.2765C15.7519 11.1675 15.6922 11.0201 15.6933 10.867C15.6944 10.7138 15.7563 10.5674 15.8653 10.4598C15.9744 10.3523 16.1218 10.2925 16.2749 10.2936C16.4281 10.2947 16.5745 10.3566 16.6821 10.4657C16.7896 10.5748 16.8494 10.7221 16.8483 10.8753C16.8472 11.0285 16.7852 11.1749 16.6762 11.2824C16.5671 11.39 16.4198 11.4497 16.2666 11.4486ZM23.7333 11.4486C23.5879 11.4376 23.4521 11.372 23.353 11.2651C23.2539 11.1582 23.1988 11.0178 23.1988 10.872C23.1988 10.7262 23.2539 10.5858 23.353 10.4788C23.4521 10.3719 23.5879 10.3064 23.7333 10.2953C23.8862 10.2953 24.0329 10.3561 24.141 10.4642C24.2492 10.5724 24.3099 10.719 24.3099 10.872C24.3099 11.0249 24.2492 11.1716 24.141 11.2797C24.0329 11.3879 23.8862 11.4486 23.7333 11.4486ZM11.9133 26.867C11.9133 27.9436 12.7883 28.8186 13.8699 28.8186H14.8466V32.8203C14.8466 33.3857 15.0712 33.9279 15.4709 34.3276C15.8707 34.7274 16.4129 34.952 16.9783 34.952C17.5436 34.952 18.0858 34.7274 18.4856 34.3276C18.8853 33.9279 19.1099 33.3857 19.1099 32.8203V28.8186H20.8866V32.8203C20.8866 33.9986 21.8399 34.9503 23.0149 34.9503C24.1966 34.9503 25.1499 33.9986 25.1499 32.8203V28.8186H26.1266C27.2066 28.8186 28.0833 27.9453 28.0833 26.867V15.047H11.9133V26.867Z" fill="#363636"/>
</svg>
