<svg width="48" height="44" viewBox="0 0 48 44" fill="none" xmlns="http://www.w3.org/2000/svg">
<rect width="47.1429" height="44" rx="6" fill="#FFF573"/>
<rect x="14.6431" y="8.35742" width="17.8571" height="27.2857" rx="1.5" stroke="#FFE631"/>
<rect x="3.64307" y="3.64258" width="39.8571" height="36.7143" stroke="#FFE631"/>
<line x1="30.3569" y1="-2.18557e-08" x2="30.3569" y2="3.14286" stroke="#FFE631"/>
<line x1="30.3569" y1="40.8574" x2="30.3569" y2="44.0003" stroke="#FFE631"/>
<line x1="16.2144" y1="-2.18557e-08" x2="16.2144" y2="3.14286" stroke="#FFE631"/>
<line y1="13.6426" x2="14.1429" y2="13.6426" stroke="#FFE631"/>
<line x1="33" y1="13.6426" x2="47.1429" y2="13.6426" stroke="#FFE631"/>
<line y1="23.0713" x2="14.1429" y2="23.0713" stroke="#FFE631"/>
<line x1="33" y1="23.0713" x2="47.1429" y2="23.0713" stroke="#FFE631"/>
<line x1="33" y1="32.5" x2="47.1429" y2="32.5" stroke="#FFE631"/>
<line y1="32.5" x2="14.1429" y2="32.5" stroke="#FFE631"/>
<line x1="16.2144" y1="40.8574" x2="16.2144" y2="44.0003" stroke="#FFE631"/>
<line x1="23.2856" y1="4.71387" x2="23.2856" y2="7.85672" stroke="#FFE631"/>
<line x1="23.2856" y1="36.1426" x2="23.2856" y2="39.2854" stroke="#FFE631"/>
</svg>
