<svg width="142" height="142" viewBox="0 0 142 142" fill="none" xmlns="http://www.w3.org/2000/svg">
<path d="M6.7619 0H0V6.7619H6.7619V0Z" fill="black"/>
<path d="M13.524 0H6.76207V6.7619H13.524V0Z" fill="black"/>
<path d="M20.2855 0H13.5236V6.7619H20.2855V0Z" fill="black"/>
<path d="M27.0476 0H20.2857V6.7619H27.0476V0Z" fill="black"/>
<path d="M33.8097 0H27.0478V6.7619H33.8097V0Z" fill="black"/>
<path d="M40.5713 0H33.8094V6.7619H40.5713V0Z" fill="black"/>
<path d="M47.3333 0H40.5714V6.7619H47.3333V0Z" fill="black"/>
<path d="M60.857 0H54.0951V6.7619H60.857V0Z" fill="black"/>
<path d="M74.3811 0H67.6192V6.7619H74.3811V0Z" fill="black"/>
<path d="M81.1427 0H74.3808V6.7619H81.1427V0Z" fill="black"/>
<path d="M101.428 0H94.6665V6.7619H101.428V0Z" fill="black"/>
<path d="M108.19 0H101.429V6.7619H108.19V0Z" fill="black"/>
<path d="M114.953 0H108.191V6.7619H114.953V0Z" fill="black"/>
<path d="M121.714 0H114.952V6.7619H121.714V0Z" fill="black"/>
<path d="M128.476 0H121.714V6.7619H128.476V0Z" fill="black"/>
<path d="M135.238 0H128.476V6.7619H135.238V0Z" fill="black"/>
<path d="M142 0H135.238V6.7619H142V0Z" fill="black"/>
<path d="M6.7619 6.76109H0V13.523H6.7619V6.76109Z" fill="black"/>
<path d="M47.3333 6.76109H40.5714V13.523H47.3333V6.76109Z" fill="black"/>
<path d="M87.9048 6.76109H81.1429V13.523H87.9048V6.76109Z" fill="black"/>
<path d="M101.428 6.76109H94.6665V13.523H101.428V6.76109Z" fill="black"/>
<path d="M142 6.76109H135.238V13.523H142V6.76109Z" fill="black"/>
<path d="M6.7619 13.5241H0V20.286H6.7619V13.5241Z" fill="black"/>
<path d="M20.2855 13.5241H13.5236V20.286H20.2855V13.5241Z" fill="black"/>
<path d="M27.0476 13.5241H20.2857V20.286H27.0476V13.5241Z" fill="black"/>
<path d="M33.8097 13.5241H27.0478V20.286H33.8097V13.5241Z" fill="black"/>
<path d="M47.3333 13.5241H40.5714V20.286H47.3333V13.5241Z" fill="black"/>
<path d="M74.3811 13.5241H67.6192V20.286H74.3811V13.5241Z" fill="black"/>
<path d="M81.1427 13.5241H74.3808V20.286H81.1427V13.5241Z" fill="black"/>
<path d="M101.428 13.5241H94.6665V20.286H101.428V13.5241Z" fill="black"/>
<path d="M114.953 13.5241H108.191V20.286H114.953V13.5241Z" fill="black"/>
<path d="M121.714 13.5241H114.952V20.286H121.714V13.5241Z" fill="black"/>
<path d="M128.476 13.5241H121.714V20.286H128.476V13.5241Z" fill="black"/>
<path d="M142 13.5241H135.238V20.286H142V13.5241Z" fill="black"/>
<path d="M6.7619 20.2852H0V27.0471H6.7619V20.2852Z" fill="black"/>
<path d="M20.2855 20.2852H13.5236V27.0471H20.2855V20.2852Z" fill="black"/>
<path d="M27.0476 20.2852H20.2857V27.0471H27.0476V20.2852Z" fill="black"/>
<path d="M33.8097 20.2852H27.0478V27.0471H33.8097V20.2852Z" fill="black"/>
<path d="M47.3333 20.2852H40.5714V27.0471H47.3333V20.2852Z" fill="black"/>
<path d="M60.857 20.2852H54.0951V27.0471H60.857V20.2852Z" fill="black"/>
<path d="M67.619 20.2852H60.8571V27.0471H67.619V20.2852Z" fill="black"/>
<path d="M74.3811 20.2852H67.6192V27.0471H74.3811V20.2852Z" fill="black"/>
<path d="M101.428 20.2852H94.6665V27.0471H101.428V20.2852Z" fill="black"/>
<path d="M114.953 20.2852H108.191V27.0471H114.953V20.2852Z" fill="black"/>
<path d="M121.714 20.2852H114.952V27.0471H121.714V20.2852Z" fill="black"/>
<path d="M128.476 20.2852H121.714V27.0471H128.476V20.2852Z" fill="black"/>
<path d="M142 20.2852H135.238V27.0471H142V20.2852Z" fill="black"/>
<path d="M6.7619 27.0483H0V33.8102H6.7619V27.0483Z" fill="black"/>
<path d="M20.2855 27.0483H13.5236V33.8102H20.2855V27.0483Z" fill="black"/>
<path d="M27.0476 27.0483H20.2857V33.8102H27.0476V27.0483Z" fill="black"/>
<path d="M33.8097 27.0483H27.0478V33.8102H33.8097V27.0483Z" fill="black"/>
<path d="M47.3333 27.0483H40.5714V33.8102H47.3333V27.0483Z" fill="black"/>
<path d="M60.857 27.0483H54.0951V33.8102H60.857V27.0483Z" fill="black"/>
<path d="M67.619 27.0483H60.8571V33.8102H67.619V27.0483Z" fill="black"/>
<path d="M74.3811 27.0483H67.6192V33.8102H74.3811V27.0483Z" fill="black"/>
<path d="M81.1427 27.0483H74.3808V33.8102H81.1427V27.0483Z" fill="black"/>
<path d="M87.9048 27.0483H81.1429V33.8102H87.9048V27.0483Z" fill="black"/>
<path d="M101.428 27.0483H94.6665V33.8102H101.428V27.0483Z" fill="black"/>
<path d="M114.953 27.0483H108.191V33.8102H114.953V27.0483Z" fill="black"/>
<path d="M121.714 27.0483H114.952V33.8102H121.714V27.0483Z" fill="black"/>
<path d="M128.476 27.0483H121.714V33.8102H128.476V27.0483Z" fill="black"/>
<path d="M142 27.0483H135.238V33.8102H142V27.0483Z" fill="black"/>
<path d="M6.7619 33.8094H0V40.5713H6.7619V33.8094Z" fill="black"/>
<path d="M47.3333 33.8094H40.5714V40.5713H47.3333V33.8094Z" fill="black"/>
<path d="M60.857 33.8094H54.0951V40.5713H60.857V33.8094Z" fill="black"/>
<path d="M74.3811 33.8094H67.6192V40.5713H74.3811V33.8094Z" fill="black"/>
<path d="M87.9048 33.8094H81.1429V40.5713H87.9048V33.8094Z" fill="black"/>
<path d="M101.428 33.8094H94.6665V40.5713H101.428V33.8094Z" fill="black"/>
<path d="M142 33.8094H135.238V40.5713H142V33.8094Z" fill="black"/>
<path d="M6.7619 40.5705H0V47.3323H6.7619V40.5705Z" fill="black"/>
<path d="M13.524 40.5705H6.76207V47.3323H13.524V40.5705Z" fill="black"/>
<path d="M20.2855 40.5705H13.5236V47.3323H20.2855V40.5705Z" fill="black"/>
<path d="M27.0476 40.5705H20.2857V47.3323H27.0476V40.5705Z" fill="black"/>
<path d="M33.8097 40.5705H27.0478V47.3323H33.8097V40.5705Z" fill="black"/>
<path d="M40.5713 40.5705H33.8094V47.3323H40.5713V40.5705Z" fill="black"/>
<path d="M47.3333 40.5705H40.5714V47.3323H47.3333V40.5705Z" fill="black"/>
<path d="M60.857 40.5705H54.0951V47.3323H60.857V40.5705Z" fill="black"/>
<path d="M74.3811 40.5705H67.6192V47.3323H74.3811V40.5705Z" fill="black"/>
<path d="M87.9048 40.5705H81.1429V47.3323H87.9048V40.5705Z" fill="black"/>
<path d="M101.428 40.5705H94.6665V47.3323H101.428V40.5705Z" fill="black"/>
<path d="M108.19 40.5705H101.429V47.3323H108.19V40.5705Z" fill="black"/>
<path d="M114.953 40.5705H108.191V47.3323H114.953V40.5705Z" fill="black"/>
<path d="M121.714 40.5705H114.952V47.3323H121.714V40.5705Z" fill="black"/>
<path d="M128.476 40.5705H121.714V47.3323H128.476V40.5705Z" fill="black"/>
<path d="M135.238 40.5705H128.476V47.3323H135.238V40.5705Z" fill="black"/>
<path d="M142 40.5705H135.238V47.3323H142V40.5705Z" fill="black"/>
<path d="M60.857 47.3335H54.0951V54.0954H60.857V47.3335Z" fill="black"/>
<path d="M67.619 47.3335H60.8571V54.0954H67.619V47.3335Z" fill="black"/>
<path d="M74.3811 47.3335H67.6192V54.0954H74.3811V47.3335Z" fill="black"/>
<path d="M6.7619 54.0946H0V60.8565H6.7619V54.0946Z" fill="black"/>
<path d="M33.8097 54.0946H27.0478V60.8565H33.8097V54.0946Z" fill="black"/>
<path d="M47.3333 54.0946H40.5714V60.8565H47.3333V54.0946Z" fill="black"/>
<path d="M54.0954 54.0946H47.3335V60.8565H54.0954V54.0946Z" fill="black"/>
<path d="M60.857 54.0946H54.0951V60.8565H60.857V54.0946Z" fill="black"/>
<path d="M74.3811 54.0946H67.6192V60.8565H74.3811V54.0946Z" fill="black"/>
<path d="M87.9048 54.0946H81.1429V60.8565H87.9048V54.0946Z" fill="black"/>
<path d="M94.6668 54.0946H87.9049V60.8565H94.6668V54.0946Z" fill="black"/>
<path d="M101.428 54.0946H94.6665V60.8565H101.428V54.0946Z" fill="black"/>
<path d="M108.19 54.0946H101.429V60.8565H108.19V54.0946Z" fill="black"/>
<path d="M114.953 54.0946H108.191V60.8565H114.953V54.0946Z" fill="black"/>
<path d="M121.714 54.0946H114.952V60.8565H121.714V54.0946Z" fill="black"/>
<path d="M142 54.0946H135.238V60.8565H142V54.0946Z" fill="black"/>
<path d="M13.524 60.8576H6.76207V67.6195H13.524V60.8576Z" fill="black"/>
<path d="M27.0476 60.8576H20.2857V67.6195H27.0476V60.8576Z" fill="black"/>
<path d="M33.8097 60.8576H27.0478V67.6195H33.8097V60.8576Z" fill="black"/>
<path d="M54.0954 60.8576H47.3335V67.6195H54.0954V60.8576Z" fill="black"/>
<path d="M60.857 60.8576H54.0951V67.6195H60.857V60.8576Z" fill="black"/>
<path d="M87.9048 60.8576H81.1429V67.6195H87.9048V60.8576Z" fill="black"/>
<path d="M94.6668 60.8576H87.9049V67.6195H94.6668V60.8576Z" fill="black"/>
<path d="M101.428 60.8576H94.6665V67.6195H101.428V60.8576Z" fill="black"/>
<path d="M128.476 60.8576H121.714V67.6195H128.476V60.8576Z" fill="black"/>
<path d="M135.238 60.8576H128.476V67.6195H135.238V60.8576Z" fill="black"/>
<path d="M13.524 67.6187H6.76207V74.3806H13.524V67.6187Z" fill="black"/>
<path d="M20.2855 67.6187H13.5236V74.3806H20.2855V67.6187Z" fill="black"/>
<path d="M27.0476 67.6187H20.2857V74.3806H27.0476V67.6187Z" fill="black"/>
<path d="M47.3333 67.6187H40.5714V74.3806H47.3333V67.6187Z" fill="black"/>
<path d="M87.9048 67.6187H81.1429V74.3806H87.9048V67.6187Z" fill="black"/>
<path d="M94.6668 67.6187H87.9049V74.3806H94.6668V67.6187Z" fill="black"/>
<path d="M135.238 67.6187H128.476V74.3806H135.238V67.6187Z" fill="black"/>
<path d="M6.7619 74.3818H0V81.1437H6.7619V74.3818Z" fill="black"/>
<path d="M20.2855 74.3818H13.5236V81.1437H20.2855V74.3818Z" fill="black"/>
<path d="M27.0476 74.3818H20.2857V81.1437H27.0476V74.3818Z" fill="black"/>
<path d="M40.5713 74.3818H33.8094V81.1437H40.5713V74.3818Z" fill="black"/>
<path d="M54.0954 74.3818H47.3335V81.1437H54.0954V74.3818Z" fill="black"/>
<path d="M60.857 74.3818H54.0951V81.1437H60.857V74.3818Z" fill="black"/>
<path d="M81.1427 74.3818H74.3808V81.1437H81.1427V74.3818Z" fill="black"/>
<path d="M87.9048 74.3818H81.1429V81.1437H87.9048V74.3818Z" fill="black"/>
<path d="M108.19 74.3818H101.429V81.1437H108.19V74.3818Z" fill="black"/>
<path d="M6.7619 81.1429H0V87.9048H6.7619V81.1429Z" fill="black"/>
<path d="M27.0476 81.1429H20.2857V87.9048H27.0476V81.1429Z" fill="black"/>
<path d="M33.8097 81.1429H27.0478V87.9048H33.8097V81.1429Z" fill="black"/>
<path d="M40.5713 81.1429H33.8094V87.9048H40.5713V81.1429Z" fill="black"/>
<path d="M47.3333 81.1429H40.5714V87.9048H47.3333V81.1429Z" fill="black"/>
<path d="M54.0954 81.1429H47.3335V87.9048H54.0954V81.1429Z" fill="black"/>
<path d="M74.3811 81.1429H67.6192V87.9048H74.3811V81.1429Z" fill="black"/>
<path d="M81.1427 81.1429H74.3808V87.9048H81.1427V81.1429Z" fill="black"/>
<path d="M101.428 81.1429H94.6665V87.9048H101.428V81.1429Z" fill="black"/>
<path d="M108.19 81.1429H101.429V87.9048H108.19V81.1429Z" fill="black"/>
<path d="M114.953 81.1429H108.191V87.9048H114.953V81.1429Z" fill="black"/>
<path d="M121.714 81.1429H114.952V87.9048H121.714V81.1429Z" fill="black"/>
<path d="M135.238 81.1429H128.476V87.9048H135.238V81.1429Z" fill="black"/>
<path d="M142 81.1429H135.238V87.9048H142V81.1429Z" fill="black"/>
<path d="M60.857 87.9039H54.0951V94.6658H60.857V87.9039Z" fill="black"/>
<path d="M67.619 87.9039H60.8571V94.6658H67.619V87.9039Z" fill="black"/>
<path d="M74.3811 87.9039H67.6192V94.6658H74.3811V87.9039Z" fill="black"/>
<path d="M81.1427 87.9039H74.3808V94.6658H81.1427V87.9039Z" fill="black"/>
<path d="M87.9048 87.9039H81.1429V94.6658H87.9048V87.9039Z" fill="black"/>
<path d="M108.19 87.9039H101.429V94.6658H108.19V87.9039Z" fill="black"/>
<path d="M128.476 87.9039H121.714V94.6658H128.476V87.9039Z" fill="black"/>
<path d="M6.7619 94.667H0V101.429H6.7619V94.667Z" fill="black"/>
<path d="M13.524 94.667H6.76207V101.429H13.524V94.667Z" fill="black"/>
<path d="M20.2855 94.667H13.5236V101.429H20.2855V94.667Z" fill="black"/>
<path d="M27.0476 94.667H20.2857V101.429H27.0476V94.667Z" fill="black"/>
<path d="M33.8097 94.667H27.0478V101.429H33.8097V94.667Z" fill="black"/>
<path d="M40.5713 94.667H33.8094V101.429H40.5713V94.667Z" fill="black"/>
<path d="M47.3333 94.667H40.5714V101.429H47.3333V94.667Z" fill="black"/>
<path d="M60.857 94.667H54.0951V101.429H60.857V94.667Z" fill="black"/>
<path d="M67.619 94.667H60.8571V101.429H67.619V94.667Z" fill="black"/>
<path d="M74.3811 94.667H67.6192V101.429H74.3811V94.667Z" fill="black"/>
<path d="M81.1427 94.667H74.3808V101.429H81.1427V94.667Z" fill="black"/>
<path d="M101.428 94.667H94.6665V101.429H101.428V94.667Z" fill="black"/>
<path d="M108.19 94.667H101.429V101.429H108.19V94.667Z" fill="black"/>
<path d="M114.953 94.667H108.191V101.429H114.953V94.667Z" fill="black"/>
<path d="M128.476 94.667H121.714V101.429H128.476V94.667Z" fill="black"/>
<path d="M135.238 94.667H128.476V101.429H135.238V94.667Z" fill="black"/>
<path d="M6.7619 101.428H0V108.19H6.7619V101.428Z" fill="black"/>
<path d="M47.3333 101.428H40.5714V108.19H47.3333V101.428Z" fill="black"/>
<path d="M74.3811 101.428H67.6192V108.19H74.3811V101.428Z" fill="black"/>
<path d="M94.6668 101.428H87.9049V108.19H94.6668V101.428Z" fill="black"/>
<path d="M101.428 101.428H94.6665V108.19H101.428V101.428Z" fill="black"/>
<path d="M114.953 101.428H108.191V108.19H114.953V101.428Z" fill="black"/>
<path d="M6.7619 108.191H0V114.953H6.7619V108.191Z" fill="black"/>
<path d="M20.2855 108.191H13.5236V114.953H20.2855V108.191Z" fill="black"/>
<path d="M27.0476 108.191H20.2857V114.953H27.0476V108.191Z" fill="black"/>
<path d="M33.8097 108.191H27.0478V114.953H33.8097V108.191Z" fill="black"/>
<path d="M47.3333 108.191H40.5714V114.953H47.3333V108.191Z" fill="black"/>
<path d="M60.857 108.191H54.0951V114.953H60.857V108.191Z" fill="black"/>
<path d="M87.9048 108.191H81.1429V114.953H87.9048V108.191Z" fill="black"/>
<path d="M94.6668 108.191H87.9049V114.953H94.6668V108.191Z" fill="black"/>
<path d="M101.428 108.191H94.6665V114.953H101.428V108.191Z" fill="black"/>
<path d="M121.714 108.191H114.952V114.953H121.714V108.191Z" fill="black"/>
<path d="M142 108.191H135.238V114.953H142V108.191Z" fill="black"/>
<path d="M6.7619 114.952H0V121.714H6.7619V114.952Z" fill="black"/>
<path d="M20.2855 114.952H13.5236V121.714H20.2855V114.952Z" fill="black"/>
<path d="M27.0476 114.952H20.2857V121.714H27.0476V114.952Z" fill="black"/>
<path d="M33.8097 114.952H27.0478V121.714H33.8097V114.952Z" fill="black"/>
<path d="M47.3333 114.952H40.5714V121.714H47.3333V114.952Z" fill="black"/>
<path d="M67.619 114.952H60.8571V121.714H67.619V114.952Z" fill="black"/>
<path d="M87.9048 114.952H81.1429V121.714H87.9048V114.952Z" fill="black"/>
<path d="M94.6668 114.952H87.9049V121.714H94.6668V114.952Z" fill="black"/>
<path d="M101.428 114.952H94.6665V121.714H101.428V114.952Z" fill="black"/>
<path d="M128.476 114.952H121.714V121.714H128.476V114.952Z" fill="black"/>
<path d="M135.238 114.952H128.476V121.714H135.238V114.952Z" fill="black"/>
<path d="M142 114.952H135.238V121.714H142V114.952Z" fill="black"/>
<path d="M6.7619 121.713H0V128.475H6.7619V121.713Z" fill="black"/>
<path d="M20.2855 121.713H13.5236V128.475H20.2855V121.713Z" fill="black"/>
<path d="M27.0476 121.713H20.2857V128.475H27.0476V121.713Z" fill="black"/>
<path d="M33.8097 121.713H27.0478V128.475H33.8097V121.713Z" fill="black"/>
<path d="M47.3333 121.713H40.5714V128.475H47.3333V121.713Z" fill="black"/>
<path d="M67.619 121.713H60.8571V128.475H67.619V121.713Z" fill="black"/>
<path d="M74.3811 121.713H67.6192V128.475H74.3811V121.713Z" fill="black"/>
<path d="M87.9048 121.713H81.1429V128.475H87.9048V121.713Z" fill="black"/>
<path d="M94.6668 121.713H87.9049V128.475H94.6668V121.713Z" fill="black"/>
<path d="M128.476 121.713H121.714V128.475H128.476V121.713Z" fill="black"/>
<path d="M6.7619 128.476H0V135.238H6.7619V128.476Z" fill="black"/>
<path d="M47.3333 128.476H40.5714V135.238H47.3333V128.476Z" fill="black"/>
<path d="M74.3811 128.476H67.6192V135.238H74.3811V128.476Z" fill="black"/>
<path d="M81.1427 128.476H74.3808V135.238H81.1427V128.476Z" fill="black"/>
<path d="M87.9048 128.476H81.1429V135.238H87.9048V128.476Z" fill="black"/>
<path d="M108.19 128.476H101.429V135.238H108.19V128.476Z" fill="black"/>
<path d="M121.714 128.476H114.952V135.238H121.714V128.476Z" fill="black"/>
<path d="M6.7619 135.237H0V141.999H6.7619V135.237Z" fill="black"/>
<path d="M13.524 135.237H6.76207V141.999H13.524V135.237Z" fill="black"/>
<path d="M20.2855 135.237H13.5236V141.999H20.2855V135.237Z" fill="black"/>
<path d="M27.0476 135.237H20.2857V141.999H27.0476V135.237Z" fill="black"/>
<path d="M33.8097 135.237H27.0478V141.999H33.8097V135.237Z" fill="black"/>
<path d="M40.5713 135.237H33.8094V141.999H40.5713V135.237Z" fill="black"/>
<path d="M47.3333 135.237H40.5714V141.999H47.3333V135.237Z" fill="black"/>
<path d="M60.857 135.237H54.0951V141.999H60.857V135.237Z" fill="black"/>
<path d="M67.619 135.237H60.8571V141.999H67.619V135.237Z" fill="black"/>
<path d="M81.1427 135.237H74.3808V141.999H81.1427V135.237Z" fill="black"/>
<path d="M101.428 135.237H94.6665V141.999H101.428V135.237Z" fill="black"/>
<path d="M108.19 135.237H101.429V141.999H108.19V135.237Z" fill="black"/>
<path d="M114.953 135.237H108.191V141.999H114.953V135.237Z" fill="black"/>
<path d="M128.476 135.237H121.714V141.999H128.476V135.237Z" fill="black"/>
<path d="M142 135.237H135.238V141.999H142V135.237Z" fill="black"/>
</svg>
