<svg width="37" height="37" viewBox="0 0 37 37" fill="none" xmlns="http://www.w3.org/2000/svg">
<path d="M18.5 1C15.0388 1 11.6554 2.02636 8.77753 3.94928C5.89967 5.87221 3.65665 8.60533 2.33212 11.803C1.00758 15.0007 0.661024 18.5194 1.33627 21.9141C2.01151 25.3087 3.67822 28.4269 6.12564 30.8744C8.57306 33.3218 11.6913 34.9885 15.0859 35.6637C18.4806 36.339 21.9993 35.9924 25.197 34.6679C28.3947 33.3434 31.1278 31.1003 33.0507 28.2225C34.9736 25.3446 36 21.9612 36 18.5C36 13.8587 34.1563 9.40752 30.8744 6.12563C27.5925 2.84374 23.1413 1 18.5 1Z" fill="#363636" stroke="#363636" stroke-width="2" stroke-miterlimit="10"/>
<path d="M12.9316 13.1595C12.9316 13.1595 13.0152 11.4194 14.8775 9.92098C15.9822 9.03106 17.3066 8.77353 18.4998 8.75564C19.5866 8.74172 20.5571 8.92169 21.1377 9.19811C22.1321 9.6714 24.068 10.8268 24.068 13.2838C24.068 15.869 22.3777 17.0433 20.4517 18.3349C18.5257 19.6265 18.0027 21.0285 18.0027 22.4772" stroke="white" stroke-width="2" stroke-miterlimit="10" stroke-linecap="round"/>
<path d="M17.7722 31.2108C18.7509 31.2108 19.5443 30.4174 19.5443 29.4387C19.5443 28.4599 18.7509 27.6665 17.7722 27.6665C16.7934 27.6665 16 28.4599 16 29.4387C16 30.4174 16.7934 31.2108 17.7722 31.2108Z" fill="white"/>
</svg>
