<svg width="51" height="51" viewBox="0 0 51 51" fill="none" xmlns="http://www.w3.org/2000/svg">
<path d="M36.8341 8.12539L42.8747 14.1631L36.8341 8.12539ZM40.7186 2.80639L24.3851 19.1399C23.5412 19.9826 22.9656 21.0564 22.7309 22.2257L21.2222 29.7778L28.7744 28.2663C29.9437 28.0324 31.016 27.4592 31.8602 26.615L48.1937 10.2815C48.6845 9.79068 49.0739 9.20799 49.3395 8.5667C49.6051 7.92541 49.7418 7.23808 49.7418 6.54395C49.7418 5.84982 49.6051 5.16249 49.3395 4.52119C49.0739 3.8799 48.6845 3.29721 48.1937 2.80639C47.7029 2.31556 47.1202 1.92622 46.4789 1.66059C45.8376 1.39496 45.1503 1.25824 44.4561 1.25824C43.762 1.25824 43.0747 1.39496 42.4334 1.66059C41.7921 1.92622 41.2094 2.31556 40.7186 2.80639V2.80639Z" stroke="white" stroke-width="2.5" stroke-linecap="round" stroke-linejoin="round"/>
<path d="M44.0384 35.4817V44.0377C44.0384 45.5505 43.4374 47.0014 42.3677 48.0711C41.298 49.1408 39.8472 49.7418 38.3344 49.7418H6.96226C5.44946 49.7418 3.99862 49.1408 2.92891 48.0711C1.8592 47.0014 1.25824 45.5505 1.25824 44.0377V12.6656C1.25824 11.1528 1.8592 9.70199 2.92891 8.63227C3.99862 7.56256 5.44946 6.96161 6.96226 6.96161H15.5183" stroke="white" stroke-width="2.5" stroke-linecap="round" stroke-linejoin="round"/>
</svg>
