<svg width="45" height="60" viewBox="0 0 45 60" fill="none" xmlns="http://www.w3.org/2000/svg">
<path d="M40.859 48.054L40.8593 48.0545L40.8593 48.0546L40.8596 48.055L40.8598 48.0555L41.7 49.53V47.8312V7.5C41.7 6.38609 41.2575 5.3178 40.4698 4.53015C39.6822 3.7425 38.6139 3.3 37.5 3.3H7.5C6.38609 3.3 5.3178 3.7425 4.53015 4.53015C3.7425 5.3178 3.3 6.38609 3.3 7.5V47.8312V49.53L4.14016 48.0555L4.1404 48.055L4.14065 48.0546L4.1407 48.0545L4.14098 48.054L4.14597 48.0457C4.15136 48.0369 4.16057 48.022 4.1738 48.0015C4.20028 47.9605 4.24289 47.8971 4.30344 47.8144C4.42453 47.6491 4.61742 47.4068 4.89662 47.1128C5.45469 46.5252 6.35913 45.7294 7.72722 44.929C10.4609 43.3298 15.0676 41.7 22.5 41.7C29.9324 41.7 34.5391 43.3298 37.2728 44.929C38.6409 45.7294 39.5453 46.5252 40.1034 47.1128C40.3826 47.4068 40.5755 47.6491 40.6966 47.8144C40.7571 47.8971 40.7997 47.9605 40.8262 48.0015C40.8304 48.008 40.8342 48.0139 40.8376 48.0193C40.8449 48.0308 40.8503 48.0397 40.854 48.0457L40.859 48.054ZM2.5149 2.5149C3.83703 1.19277 5.63022 0.45 7.5 0.45H37.5C39.3698 0.45 41.163 1.19277 42.4851 2.5149C43.8072 3.83703 44.55 5.63022 44.55 7.5V52.5C44.55 54.3698 43.8072 56.163 42.4851 57.4851C41.163 58.8072 39.3698 59.55 37.5 59.55H7.5C5.63022 59.55 3.83703 58.8072 2.5149 57.4851C1.19277 56.163 0.45 54.3698 0.45 52.5V7.5C0.45 5.63022 1.19277 3.83703 2.5149 2.5149Z" fill="white" stroke="#1E4E79" stroke-width="0.9"/>
<path d="M26.633 36.2279C25.3227 36.7707 23.9183 37.05 22.5 37.05C19.6357 37.05 16.8886 35.9121 14.8632 33.8868C12.8379 31.8614 11.7 29.1143 11.7 26.25C11.7 23.3857 12.8379 20.6386 14.8632 18.6132C16.8886 16.5879 19.6357 15.45 22.5 15.45C23.9183 15.45 25.3227 15.7294 26.633 16.2721C27.9433 16.8149 29.1339 17.6104 30.1368 18.6132C31.1396 19.6161 31.9351 20.8067 32.4779 22.117C33.0207 23.4273 33.3 24.8317 33.3 26.25C33.3 27.6683 33.0207 29.0727 32.4779 30.383C31.9351 31.6933 31.1396 32.8839 30.1368 33.8868C29.1339 34.8896 27.9433 35.6851 26.633 36.2279Z" fill="white" stroke="#1E4E79" stroke-width="0.9"/>
</svg>
