<svg width="24" height="32" viewBox="0 0 24 32" fill="none" xmlns="http://www.w3.org/2000/svg">
<path d="M5.99997 15C5.99997 14.4696 6.21069 13.9609 6.58576 13.5858C6.96083 13.2107 7.46954 13 7.99997 13H9.99997C10.5304 13 11.0391 13.2107 11.4142 13.5858C11.7893 13.9609 12 14.4696 12 15V16.876L12.8 20.074C12.8996 20.4741 12.8732 20.8953 12.7243 21.2798C12.5753 21.6643 12.3112 21.9934 11.968 22.222L10.108 23.462C9.77931 23.6813 9.39307 23.7983 8.99797 23.7983C8.60288 23.7983 8.21663 23.6813 7.88797 23.462L6.02997 22.222C5.68713 21.9931 5.42338 21.6639 5.27481 21.2794C5.12624 20.8949 5.1001 20.4739 5.19997 20.074L5.99997 16.876V15ZM9.99997 15H7.99997V16.876C7.99995 17.0398 7.9798 17.2031 7.93997 17.362L7.13997 20.558L8.99997 21.798L10.858 20.558L10.058 17.362C10.0188 17.203 9.99933 17.0398 9.99997 16.876V15Z" fill="white"/>
<path d="M24 9V28C24 29.0609 23.5786 30.0783 22.8284 30.8284C22.0783 31.5786 21.0609 32 20 32H4C2.93913 32 1.92172 31.5786 1.17157 30.8284C0.421427 30.0783 0 29.0609 0 28V4C0 2.93913 0.421427 1.92172 1.17157 1.17157C1.92172 0.421427 2.93913 0 4 0L15 0L24 9ZM18 9C17.2044 9 16.4413 8.68393 15.8787 8.12132C15.3161 7.55871 15 6.79565 15 6V2H11V4H9V6H11V8H9V10H11V12H8V10H6V8H8V6H6V4H8V2H4C3.46957 2 2.96086 2.21071 2.58579 2.58579C2.21071 2.96086 2 3.46957 2 4V28C2 28.5304 2.21071 29.0391 2.58579 29.4142C2.96086 29.7893 3.46957 30 4 30H20C20.5304 30 21.0391 29.7893 21.4142 29.4142C21.7893 29.0391 22 28.5304 22 28V9H18Z" fill="white"/>
</svg>
