<svg width="20" height="20" viewBox="0 0 20 20" fill="none" xmlns="http://www.w3.org/2000/svg">
<path d="M19.3375 9.7875C18.6236 7.91927 17.3787 6.30071 15.7562 5.13125L18.75 2.13125L17.8687 1.25L1.25 17.8687L2.13125 18.75L5.31875 15.5688C6.74152 16.398 8.35345 16.8478 10 16.875C12.0372 16.7984 14.0073 16.1265 15.6667 14.9424C17.3262 13.7584 18.6024 12.114 19.3375 10.2125C19.3871 10.0752 19.3871 9.92482 19.3375 9.7875ZM10 14.0625C9.1385 14.0621 8.29972 13.7862 7.60625 13.275L8.75 12.1438C9.22425 12.4036 9.76997 12.5027 10.3053 12.4261C10.8406 12.3495 11.3367 12.1014 11.719 11.719C12.1014 11.3367 12.3495 10.8406 12.4261 10.3053C12.5027 9.76997 12.4036 9.22425 12.1438 8.75L13.275 7.61875C13.7153 8.2235 13.9798 8.93822 14.0392 9.68391C14.0987 10.4296 13.9508 11.1772 13.6118 11.8441C13.2729 12.5109 12.7562 13.0711 12.1187 13.4626C11.4813 13.8541 10.7481 14.0617 10 14.0625Z" fill="#B5B5B5"/>
<path d="M2.83147 13.6312L5.95647 10.5062C5.94022 10.338 5.93396 10.169 5.93772 10C5.93938 8.92307 6.36792 7.89071 7.12943 7.1292C7.89094 6.3677 8.92329 5.93915 10.0002 5.9375C10.1653 5.93838 10.3301 5.94881 10.494 5.96875L12.8565 3.6125C11.937 3.29669 10.9724 3.13206 10.0002 3.125C7.96305 3.20161 5.99297 3.87347 4.33347 5.05755C2.67398 6.24164 1.39782 7.88603 0.662722 9.7875C0.613077 9.92482 0.613077 10.0752 0.662722 10.2125C1.14274 11.4892 1.88105 12.653 2.83147 13.6312Z" fill="#B5B5B5"/>
</svg>
