<svg width="20" height="20" viewBox="0 0 20 20" fill="none" xmlns="http://www.w3.org/2000/svg">
<path d="M10 12.5C11.3807 12.5 12.5 11.3807 12.5 10C12.5 8.61929 11.3807 7.5 10 7.5C8.61929 7.5 7.5 8.61929 7.5 10C7.5 11.3807 8.61929 12.5 10 12.5Z" fill="#B5B5B5"/>
<path d="M19.3377 9.7875C18.6026 7.88603 17.3265 6.24164 15.667 5.05755C14.0075 3.87347 12.0374 3.20161 10.0002 3.125C7.96305 3.20161 5.99297 3.87347 4.33347 5.05755C2.67398 6.24164 1.39782 7.88603 0.662722 9.7875C0.613077 9.92482 0.613077 10.0752 0.662722 10.2125C1.39782 12.114 2.67398 13.7584 4.33347 14.9424C5.99297 16.1265 7.96305 16.7984 10.0002 16.875C12.0374 16.7984 14.0075 16.1265 15.667 14.9424C17.3265 13.7584 18.6026 12.114 19.3377 10.2125C19.3874 10.0752 19.3874 9.92482 19.3377 9.7875ZM10.0002 14.0625C9.19674 14.0625 8.41129 13.8242 7.74322 13.3778C7.07514 12.9315 6.55444 12.297 6.24696 11.5547C5.93948 10.8123 5.85903 9.99549 6.01578 9.20745C6.17254 8.4194 6.55945 7.69553 7.1276 7.12738C7.69575 6.55923 8.41962 6.17231 9.20767 6.01556C9.99572 5.85881 10.8125 5.93926 11.5549 6.24674C12.2972 6.55422 12.9317 7.07492 13.3781 7.743C13.8245 8.41107 14.0627 9.19651 14.0627 10C14.0611 11.0769 13.6325 12.1093 12.871 12.8708C12.1095 13.6323 11.0772 14.0608 10.0002 14.0625Z" fill="#B5B5B5"/>
</svg>
